{"title":"Geordie Shore S11E03 1080P WEB-DL AAC2 0 H 264","uid":12687096,"size":1599351303,"categoryP":"video","categoryS":"hd___tv_shows","magnet":"?xt=urn:btih:e0f54a257bd44fc53a6c5c78aa52dd36fc226c60&amp;dn=Geordie+Shore+S11E03+1080P+WEB-DL+AAC2+0+H+264&amp;tr=udp%3A%2F%2Ftracker.leechers-paradise.org%3A6969&amp;tr=udp%3A%2F%2Fzer0day.ch%3A1337&amp;tr=udp%3A%2F%2Fopen.demonii.com%3A1337&amp;tr=udp%3A%2F%2Ftracker.coppersurfer.tk%3A6969&amp;tr=udp%3A%2F%2Fexodus.desync.com%3A6969","seeders":2,"leechers":2,"uploader":"jmanwf","files":1,"time":1446626033,"description":"Gaz's pulling competition causes a bust up for Aaron and Scott. Charlotte tells Holly some home truths about Kyle while the toga party sees Chloe and Scott get closer than ever.\r\n\r\n\r\n\r\nVideo\r\nID : 2\r\nFormat : AVC\r\nFormat/Info : Advanced Video Codec\r\nFormat profile :   \r\nFormat settings, CABAC : Yes\r\nFormat settings, ReFrames : 4 frames\r\nCodec ID : avc1\r\nCodec ID/Info : Advanced Video Coding\r\nDuration : 42mn 17s\r\nBit rate : 4 913 Kbps\r\nWidth : 1 920 pixels\r\nHeight : 1 080 pixels\r\nDisplay aspect ratio : 16:9\r\nFrame rate mode : Constant\r\nFrame rate : 25.000 fps\r\nColor space : YUV\r\nChroma subsampling : 4:2:0\r\nBit depth : 8 bits\r\nScan type : Progressive\r\nBits/(Pixel*Frame) : 0.095\r\nStream size : 1.45 GiB (97%)\r\nLanguage : English\r\nEncoded date : UTC 2015-11-04 01:24:05\r\nTagged date : UTC 2015-11-04 01:26:31\r\nColor range : Limited\r\nColor primaries : BT.709\r\nTransfer characteristics : BT.709\r\nMatrix coefficients : BT.709\r\n\r\nAudio\r\nID : 1\r\nFormat : AAC\r\nFormat/Info : Advanced Audio Codec\r\nFormat profile : LC\r\nCodec ID : 40\r\nDuration : 42mn 17s\r\nBit rate mode : Variable\r\nBit rate : 126 Kbps\r\nMaximum bit rate : 205 Kbps\r\nChannel(s) : 2 channels\r\nChannel positions : Front: L R\r\nSampling rate : 48.0 KHz\r\nCompression mode : Lossy\r\nStream size : 38.0 MiB (2%)\r\nLanguage : English\r\nEncoded date : UTC 2015-11-04 01:24:05\r\nTagged date : UTC 2015-11-04 01:26:31","torrent":{"xt":"urn:btih:e0f54a257bd44fc53a6c5c78aa52dd36fc226c60","amp;dn":"Geordie+Shore+S11E03+1080P+WEB-DL+AAC2+0+H+264","amp;tr":["udp%3A%2F%2Ftracker.leechers-paradise.org%3A6969","udp%3A%2F%2Fzer0day.ch%3A1337","udp%3A%2F%2Fopen.demonii.com%3A1337","udp%3A%2F%2Ftracker.coppersurfer.tk%3A6969","udp%3A%2F%2Fexodus.desync.com%3A6969"],"infoHash":"e0f54a257bd44fc53a6c5c78aa52dd36fc226c60","infoHashBuffer":{"type":"Buffer","data":[224,245,74,37,123,212,79,197,58,108,92,120,170,82,221,54,252,34,108,96]},"announce":[],"urlList":[]}}